<svg width="76" height="76" viewBox="0 0 76 76" fill="none" xmlns="http://www.w3.org/2000/svg"><path d="M0 38C0 17.013 17.013 0 38 0s38 17.013 38 38-17.013 38-38 38H0V38z" fill="#BEB7FB"/><g clip-path="url(#clip0_49_151)" fill="#fff"><path d="M47.098 24.122l-9.137-3.047c-.299-.1-.622-.1-.922 0l-9.136 3.047a7.281 7.281 0 00-4.986 6.917V38.5c0 11.03 13.417 17.12 13.991 17.375a1.457 1.457 0 001.184 0c.575-.254 13.992-6.346 13.992-17.375v-7.462a7.281 7.281 0 00-4.986-6.917zM49.167 38.5c0 7.955-9.215 13.173-11.667 14.421-2.454-1.243-11.666-6.445-11.666-14.421v-7.462a4.374 4.374 0 012.992-4.15l8.674-2.893 8.675 2.892a4.375 4.375 0 012.992 4.15V38.5z"/><path d="M42.313 33.105l-6.108 6.125-3.272-3.413a1.46 1.46 0 10-2.102 2.021l3.363 3.5a2.73 2.73 0 001.962.875h.048a2.732 2.732 0 001.947-.806l6.23-6.23a1.462 1.462 0 00.002-2.07 1.465 1.465 0 00-2.07-.002z"/></g><defs><clipPath id="clip0_49_151"><path fill="#fff" transform="translate(20 21)" d="M0 0h35v35H0z"/></clipPath></defs></svg>