<svg width="157" height="30" viewBox="0 0 157 30" fill="none" xmlns="http://www.w3.org/2000/svg"><path d="M2.926 22.11c-.337 0-.609-.103-.814-.308-.205-.205-.308-.484-.308-.836V7.59c0-.337.095-.601.286-.792.205-.205.484-.308.836-.308h5.302c1.643 0 2.919.403 3.828 1.21.91.807 1.364 1.95 1.364 3.432 0 1.467-.455 2.61-1.364 3.432-.91.821-2.185 1.232-3.828 1.232H4.07v5.17c0 .352-.103.63-.308.836-.19.205-.47.308-.836.308zm5.06-8.14c2.17 0 3.256-.946 3.256-2.838 0-1.877-1.085-2.816-3.256-2.816H4.07v5.654h3.916zm12.204 8.184c-1.056 0-1.987-.227-2.794-.682a4.707 4.707 0 01-1.848-1.936c-.425-.85-.638-1.833-.638-2.948 0-1.13.213-2.112.638-2.948.44-.85 1.056-1.503 1.848-1.958.807-.455 1.738-.682 2.794-.682s1.98.227 2.772.682a4.503 4.503 0 011.848 1.958c.44.836.66 1.819.66 2.948 0 1.115-.22 2.097-.66 2.948a4.53 4.53 0 01-1.848 1.936c-.792.455-1.716.682-2.772.682zm0-1.76c.983 0 1.731-.323 2.244-.968.528-.645.792-1.591.792-2.838 0-1.232-.264-2.17-.792-2.816-.528-.66-1.276-.99-2.244-.99-.968 0-1.716.33-2.244.99-.528.645-.792 1.584-.792 2.816 0 1.247.257 2.193.77 2.838.528.645 1.284.968 2.266.968zm11.494 1.76c-1.496 0-2.72-.308-3.674-.924-.264-.161-.454-.33-.572-.506a1.157 1.157 0 01-.154-.594c0-.235.066-.433.198-.594a.625.625 0 01.506-.242c.191 0 .492.117.902.352.44.235.866.425 1.276.572.426.147.954.22 1.584.22.704 0 1.254-.125 1.65-.374.396-.25.594-.601.594-1.056 0-.293-.08-.528-.242-.704-.146-.176-.41-.33-.792-.462-.381-.147-.946-.3-1.694-.462-1.29-.279-2.222-.653-2.794-1.122-.557-.484-.836-1.137-.836-1.958 0-.63.184-1.195.55-1.694.367-.513.873-.91 1.518-1.188.646-.279 1.379-.418 2.2-.418.587 0 1.159.08 1.716.242a4.663 4.663 0 011.474.66c.484.323.726.697.726 1.122a.85.85 0 01-.22.594.604.604 0 01-.484.242.967.967 0 01-.396-.088 5.232 5.232 0 01-.528-.286 7.14 7.14 0 00-1.122-.55c-.337-.132-.762-.198-1.276-.198-.616 0-1.114.132-1.496.396a1.26 1.26 0 00-.55 1.078c0 .41.169.733.506.968.352.22 1.005.433 1.958.638.983.205 1.753.44 2.31.704.558.264.954.594 1.188.99.25.381.374.873.374 1.474 0 .953-.403 1.723-1.21 2.31-.792.572-1.855.858-3.19.858zm7.996-.044c-.323 0-.594-.088-.814-.264-.206-.176-.308-.44-.308-.792v-8.932c0-.352.102-.616.308-.792a1.2 1.2 0 01.814-.286c.322 0 .586.095.792.286.205.176.308.44.308.792v8.932c0 .352-.103.616-.308.792-.206.176-.47.264-.792.264zm0-13.222c-.426 0-.763-.117-1.012-.352-.25-.235-.374-.543-.374-.924s.124-.682.374-.902c.249-.235.586-.352 1.012-.352.41 0 .74.117.99.352.264.22.396.52.396.902 0 .381-.125.69-.374.924-.25.235-.587.352-1.012.352zm9.764 11.528c.323.03.55.117.682.264.147.132.22.323.22.572a.78.78 0 01-.351.682c-.22.147-.55.205-.99.176l-.595-.044c-1.188-.088-2.075-.447-2.661-1.078-.587-.645-.88-1.591-.88-2.838v-5.17h-1.32c-.646 0-.968-.286-.968-.858 0-.264.08-.47.241-.616.176-.161.418-.242.726-.242h1.32V8.998c0-.337.096-.601.286-.792.206-.19.477-.286.814-.286.338 0 .61.095.814.286.206.19.309.455.309.792v2.266h2.178c.308 0 .542.08.703.242.176.147.264.352.264.616 0 .279-.087.491-.264.638-.16.147-.395.22-.703.22H47.09v5.324c0 .69.139 1.195.417 1.518.294.323.734.506 1.32.55l.616.044zm3.62 1.694c-.322 0-.594-.088-.814-.264-.205-.176-.308-.44-.308-.792v-8.932c0-.352.103-.616.308-.792a1.2 1.2 0 01.814-.286c.323 0 .587.095.792.286.206.176.308.44.308.792v8.932c0 .352-.102.616-.308.792-.205.176-.469.264-.792.264zm0-13.222c-.425 0-.762-.117-1.012-.352-.249-.235-.374-.543-.374-.924s.125-.682.374-.902c.25-.235.587-.352 1.012-.352.411 0 .741.117.99.352.264.22.396.52.396.902 0 .381-.124.69-.374.924-.249.235-.586.352-1.012.352zm8.87 13.266c-1.055 0-1.987-.227-2.793-.682a4.707 4.707 0 01-1.849-1.936c-.425-.85-.638-1.833-.638-2.948 0-1.13.213-2.112.638-2.948.44-.85 1.056-1.503 1.849-1.958.806-.455 1.738-.682 2.794-.682 1.055 0 1.98.227 2.772.682a4.504 4.504 0 011.848 1.958c.44.836.66 1.819.66 2.948 0 1.115-.22 2.097-.66 2.948a4.53 4.53 0 01-1.849 1.936c-.792.455-1.716.682-2.772.682zm0-1.76c.983 0 1.731-.323 2.245-.968.528-.645.791-1.591.791-2.838 0-1.232-.263-2.17-.791-2.816-.529-.66-1.276-.99-2.245-.99-.967 0-1.715.33-2.243.99-.529.645-.793 1.584-.793 2.816 0 1.247.257 2.193.77 2.838.529.645 1.284.968 2.267.968zM75.475 11c2.567 0 3.85 1.445 3.85 4.334v5.72c0 .337-.102.601-.308.792-.19.176-.462.264-.814.264-.337 0-.608-.095-.814-.286-.19-.19-.286-.447-.286-.77v-5.61c0-.91-.183-1.577-.55-2.002-.352-.425-.909-.638-1.672-.638-.894 0-1.613.279-2.156.836-.542.557-.814 1.305-.814 2.244v5.17c0 .323-.102.58-.308.77-.19.19-.454.286-.792.286-.337 0-.608-.095-.814-.286-.205-.19-.308-.447-.308-.77V12.1c0-.308.103-.557.308-.748a1.15 1.15 0 01.814-.308c.323 0 .58.095.77.286.191.19.286.44.286.748v.902a3.57 3.57 0 011.474-1.474c.631-.337 1.342-.506 2.134-.506zm10.63 11.154c-1.496 0-2.72-.308-3.674-.924-.264-.161-.454-.33-.572-.506a1.158 1.158 0 01-.154-.594c0-.235.066-.433.198-.594a.625.625 0 01.506-.242c.19 0 .492.117.902.352.44.235.866.425 1.276.572.426.147.954.22 1.584.22.704 0 1.254-.125 1.65-.374.396-.25.594-.601.594-1.056 0-.293-.08-.528-.242-.704-.146-.176-.41-.33-.792-.462-.381-.147-.946-.3-1.694-.462-1.29-.279-2.222-.653-2.794-1.122-.557-.484-.836-1.137-.836-1.958 0-.63.184-1.195.55-1.694.367-.513.873-.91 1.518-1.188.646-.279 1.379-.418 2.2-.418.587 0 1.159.08 1.716.242a4.662 4.662 0 011.474.66c.484.323.726.697.726 1.122a.85.85 0 01-.22.594.604.604 0 01-.484.242.967.967 0 01-.396-.088 5.232 5.232 0 01-.528-.286 7.14 7.14 0 00-1.122-.55c-.337-.132-.762-.198-1.276-.198-.616 0-1.114.132-1.496.396a1.26 1.26 0 00-.55 1.078c0 .41.169.733.506.968.352.22 1.005.433 1.958.638.983.205 1.753.44 2.31.704.558.264.954.594 1.188.99.25.381.374.873.374 1.474 0 .953-.403 1.723-1.21 2.31-.792.572-1.855.858-3.19.858zm13.341.022c-2.067 0-3.637-.535-4.707-1.606-1.071-1.07-1.606-2.647-1.606-4.73V7.524c0-.352.102-.63.307-.836.206-.205.477-.308.815-.308.337 0 .608.103.813.308.206.205.309.484.309.836v8.47c0 1.423.337 2.5 1.011 3.234.69.733 1.71 1.1 3.058 1.1 1.335 0 2.347-.367 3.037-1.1.689-.733 1.034-1.811 1.034-3.234v-8.47c0-.337.102-.609.308-.814.205-.22.476-.33.814-.33.337 0 .608.103.814.308.205.205.308.484.308.836v8.316c0 2.068-.543 3.645-1.628 4.73-1.071 1.07-2.633 1.606-4.687 1.606zM114.748 11c.924 0 1.746.235 2.464.704.734.47 1.298 1.13 1.694 1.98.411.85.616 1.833.616 2.948 0 1.1-.198 2.068-.594 2.904-.396.836-.96 1.481-1.694 1.936-.718.455-1.547.682-2.486.682-.806 0-1.518-.169-2.134-.506a3.473 3.473 0 01-1.408-1.496v4.906c0 .308-.102.55-.308.726-.19.19-.447.286-.77.286-.337 0-.616-.095-.836-.286-.205-.19-.308-.447-.308-.77V12.122c0-.323.103-.58.308-.77.206-.205.477-.308.814-.308.323 0 .587.103.792.308.206.19.308.447.308.77v.902a3.473 3.473 0 011.408-1.496c.616-.352 1.328-.528 2.134-.528zm-.528 9.394c.968 0 1.716-.323 2.244-.968.528-.66.792-1.591.792-2.794 0-1.217-.271-2.163-.814-2.838-.528-.675-1.268-1.012-2.222-1.012-.968 0-1.716.33-2.244.99-.513.66-.77 1.599-.77 2.816 0 1.217.257 2.156.77 2.816.528.66 1.276.99 2.244.99z" fill="#232323"/><path d="M133 19l11.923-11L157 19h-24z" fill="#44B874"/></svg>