<svg width="27" height="27" viewBox="0 0 27 27" fill="none" xmlns="http://www.w3.org/2000/svg"><circle cx="13.5" cy="13.5" r="13.5" fill="#5182E1"/><g clip-path="url(#clip0_54_43)"><path d="M13 7a7.008 7.008 0 00-7 7c-.074 5.584 6.509 9 11.025 5.727a.584.584 0 10-.672-.954C12.59 21.5 7.108 18.653 7.166 14c.32-7.739 11.348-7.737 11.667 0v1.167a1.167 1.167 0 11-2.333 0V14c-.147-4.625-6.854-4.625-7 0a3.51 3.51 0 006.136 2.294A2.333 2.333 0 0020 15.167V14a7.008 7.008 0 00-7-7zm0 9.333a2.333 2.333 0 110-4.666 2.333 2.333 0 010 4.666z" fill="#fff"/></g><defs><clipPath id="clip0_54_43"><path fill="#fff" transform="translate(6 7)" d="M0 0h14v14H0z"/></clipPath></defs></svg>