<svg width="27" height="27" viewBox="0 0 27 27" fill="none" xmlns="http://www.w3.org/2000/svg"><circle cx="13.5" cy="13.5" r="13.5" fill="#5182E1"/><g clip-path="url(#clip0_54_42)"><path d="M21 8.392c-.1.462-.201.924-.298 1.386l-1.712 8.219-.379 1.817a2.76 2.76 0 01-.03.126c-.264 1.013-1.24 1.374-2.105.756-.588-.42-1.143-.884-1.712-1.329l-1.069-.836-.894.8c-.31.277-.618.555-.928.83-.364.326-.78.52-1.284.427-.54-.1-.866-.454-1.047-.938-.27-.728-.529-1.46-.792-2.19s-.528-1.46-.785-2.192a.258.258 0 00-.197-.185c-.93-.255-1.86-.515-2.789-.774-.053-.015-.106-.03-.158-.047-.378-.134-.688-.34-.821-.733v-.291c.092-.144.153-.324.281-.425a2.55 2.55 0 01.668-.375c4.29-1.6 8.582-3.193 12.874-4.786.546-.203 1.088-.421 1.647-.59.742-.223 1.395.174 1.506.851.003.02.016.04.024.06v.42zm-8.82 7.704l.28.222 4.486 3.514c.407.32.599.25.7-.252.102-.5.206-1.001.31-1.502.676-3.246 1.352-6.491 2.026-9.738a1.11 1.11 0 00.02-.208c.001-.124-.067-.184-.19-.155-.129.03-.255.071-.378.117a42914.38 42914.38 0 00-14.042 5.212c-.039.014-.075.035-.138.065.052.018.074.027.098.034.935.26 1.869.522 2.805.777a.337.337 0 00.214-.035c2.294-1.137 4.586-2.277 6.88-3.418.497-.247.993-.495 1.491-.74.249-.121.506-.07.655.124.15.196.129.444-.058.649-.047.052-.098.102-.147.153l-4.028 4.163-.983 1.018zm-1.914 2.645c.025-.08.036-.11.044-.14.205-.808.415-1.615.614-2.425a1.02 1.02 0 01.275-.484c1.11-1.141 2.215-2.286 3.321-3.43.03-.031.055-.066.081-.098l-.017-.014-5.673 2.82 1.355 3.77zM11.743 17l-.63 2.484.027.015 1.77-1.585L11.743 17z" fill="#fff"/></g><defs><clipPath id="clip0_54_42"><path fill="#fff" transform="translate(4 7)" d="M0 0h17v14H0z"/></clipPath></defs></svg>